<svg xmlns="http://www.w3.org/2000/svg" xml:space="preserve" width="1700" height="1700" fill="none" viewBox="0 0 449.8 449.8"><style>path {fill: #000;}@media (prefers-color-scheme: dark) {path {fill: #fff;}}</style><path d="M-108 236.2c1-4 6.9-24 13.4-46.1a11640.7 11640.7 0 0 1 15.1-51.8c0-.1-8.3-.3-18.5-.3a178 178 0 0 1-18.5-.3c0-.6 2.8-6.1 4.3-8.3 4.8-7 11-11.8 18.4-14 2.7-.7 10.1-1.3 17.9-1.3h4.1l.4-1.4c1-3.7 5.2-17 6.2-19.9 5.4-14 13.2-22 25.7-26 7.2-2.4 15-3.2 31.4-3.2H3l-.2 1-3.7 12.5-3.5 11.4-8.4.2c-9.2.2-11 .5-14.6 2.5a18.8 18.8 0 0 0-7.1 7.5c-1.2 2.4-3 7.4-4.4 12.8l-.8 2.5h13.4c7.4 0 13.4.2 13.4.3l-3.6 12L-20 138l-13.4.1-13.4.1-2.6 8.7-6.5 21.7c-5.2 17.5-7.4 23.9-9.7 28.7a83 83 0 0 1-42 40.2c-.7 0-.7-.1-.4-1.3zM84.8 159a95 95 0 0 1 10.7-35A101.4 101.4 0 0 1 115 96.3a87.2 87.2 0 0 1 53.6-25.7c5.1-.6 17-.5 21.4.1a32 32 0 0 1 19 8.5c2.4 2.3 3.2 3.4 4.6 6.2 2.5 5.2 3.2 8.2 3.2 15.2v6l-4.6.1c-7.8.3-15 1.6-22.6 4.2a93.7 93.7 0 0 0-17.4 7.9c-1.7 1-1.3.5 3.2-3.9a110 110 0 0 1 16.2-13.3c2-1.4 3.3-2.5 3-2.5-1.1 0-7 2.3-10.3 4.1l-3.6 1.9-.5-1.2c-4.5-9.3-21.6-8.5-34.7 1.6a64 64 0 0 0-9.6 10c-7 9.3-13 22.2-15 32.8l-.8 3.8-3.2 1.4c-8.6 3.9-22.5 7-30.9 7-1.3 0-1.3 0-1.1-1.7z" transform="translate(122.5 74.3)"/><path d="m176.5 197 9.3-6.8c20.1-14.3 48-35 48-35.6 0-.7-9-18-10.7-20.8a39 39 0 0 0-25.8-15.7l-3.8-.8 2.7-.2 28-.2h25.3l5 10 5 10.1 5.8-4.4 13.2-10 7.6-5.7h17.8c17.6 0 17.9 0 17.2.6-.7.8-22.9 17.5-40.8 30.9-6 4.4-10.9 8.2-10.8 8.3l8.3 16.6a557.3 557.3 0 0 0 12.3 23.5l-17.8.2-17.8.1-3.5-7.4-5.1-11.2c-1-2-1.8-3.8-2-3.8-.2 0-1 .7-2 1.5l-14.7 11.3-12.9 9.8h-19c-11 0-19-.1-18.8-.3zM-47.6 196.9a89.4 89.4 0 0 1 15.4-30 80.3 80.3 0 0 1 18-15.8c9.7-6 12.3-7.2 49-21.7 19.2-7.5 26-12 29.6-19.2 1-2.2 1.3-3 1.4-5.3.1-3.7-.6-5-4-6.7-2.4-1.3-2.4-1.3-8.4-1.2a29 29 0 0 0-27.6 16.2l-.9 2H-7.8l.9-2.3a67.3 67.3 0 0 1 20.8-27.4c14.3-10.7 32.4-15.7 55.3-15.1 20 .5 29.5 5.5 32.4 16.9.6 2.5.7 3.6.5 7.5-.7 16-10.8 31-27.8 41.3a226 226 0 0 1-39 16.9L20 158.8c-7.5 3-14.7 7-18 10L0 170.6l44.6-.1c47.9-.2 47.2-.1 56.9-2a93.9 93.9 0 0 0 25.6-9.5l-2.8 3a109.7 109.7 0 0 1-69.8 34.6c-4.6.5-102 .8-102.2.4z" transform="translate(122.5 74.3)"/><path d="M116 198c-3.9-.3-9.5-1.5-12.9-2.7-2.6-1-8-3.6-8-4 0-.1 2.1-1.5 4.7-3 7.6-4.5 13.7-9.3 20.7-16.2 3.5-3.6 4-4 4.5-3.5 1 .7 4.7 1.8 7.2 2 4.6.5 11.6-1 16.8-3.5a58 58 0 0 0 24.2-26.3c2-4 4.6-10.5 5.2-13.1l.5-1.7 6 .1c7 .2 10.5 1 16.3 3.6a62 62 0 0 1 8.6 4.7 94.8 94.8 0 0 1-55 58.5A92.6 92.6 0 0 1 116 198z" transform="translate(122.5 74.3)"/></svg>
